<svg width="47" height="29" viewBox="0 0 47 29" fill="none" xmlns="http://www.w3.org/2000/svg">
<path d="M15.7592 27.2835H37.9342C38.0804 27.2835 38.2341 27.2835 38.3792 27.2997V27.2835C42.0017 27.2835 44.9492 24.3373 44.9492 20.7135C44.9492 17.0923 42.0017 14.1448 38.3792 14.1448C37.8679 14.1448 37.3342 14.2123 36.7942 14.3448C36.6179 14.3898 36.4329 14.3573 36.2816 14.2573C36.1329 14.1573 36.0304 13.9985 36.0029 13.8198C35.2679 9.14476 31.3017 5.75104 26.5717 5.75104C21.3017 5.75104 17.0117 10.0398 17.0117 15.311C17.0117 15.571 17.0292 15.826 17.0504 16.0798C17.0679 16.271 16.9967 16.461 16.8579 16.5948C16.7216 16.7298 16.5304 16.7935 16.3379 16.7748C16.1479 16.7535 15.9541 16.7411 15.7591 16.7411C12.8516 16.7411 10.4879 19.1061 10.4879 22.0123C10.4879 24.9186 12.8516 27.2836 15.7591 27.2836L15.7592 27.2835ZM15.7229 15.451V15.3111C15.7229 9.32985 20.5879 4.46106 26.5717 4.46106C31.7167 4.46106 36.0617 7.99484 37.1529 12.9573C37.5654 12.8885 37.9779 12.8549 38.3792 12.8549C42.7117 12.8549 46.2379 16.3798 46.2379 20.7136C46.2379 25.0473 42.7116 28.5723 38.3766 28.5723H32.5142H15.7592C12.1404 28.5723 9.19666 25.6298 9.19666 22.0123C9.19666 18.4061 12.1217 15.4698 15.7229 15.451Z" fill="white"/>
<path d="M7.85875 8.50916C8.26125 8.50916 8.67125 8.54286 9.08625 8.61041C10.1763 3.64791 14.5238 0.115417 19.6675 0.115417C21.9063 0.115417 24.0575 0.791658 25.8838 2.07416C26.1763 2.27791 26.2475 2.67915 26.0425 2.9704C25.8375 3.2629 25.4375 3.3329 25.1438 3.12915C23.535 2.00165 21.64 1.40417 19.6675 1.40417C14.9363 1.40417 10.9688 4.7979 10.2363 9.4729C10.2076 9.65165 10.1075 9.8104 9.95625 9.9104C9.805 10.0104 9.61876 10.0417 9.44376 9.99921C8.90626 9.86671 8.37375 9.79919 7.85875 9.79919C4.23625 9.79919 1.28875 12.7467 1.28875 16.3679C1.28875 19.7467 3.82125 22.5554 7.175 22.9017C7.52875 22.9379 7.7875 23.2554 7.75125 23.6092C7.71755 23.9417 7.43625 24.1879 7.10875 24.1879C7.08755 24.1879 7.06505 24.187 7.04375 24.186C3.0275 23.771 0 20.411 0 16.3685C0 12.0347 3.525 8.5097 7.85875 8.5097" fill="white"/>
</svg>
