<svg width="44" height="44" viewBox="0 0 44 44" fill="none" xmlns="http://www.w3.org/2000/svg">
<path d="M22.2058 32.2109C16.7271 32.2109 12.2708 27.7534 12.2708 22.2747C12.2708 16.7972 16.7271 12.3397 22.2058 12.3397C27.6846 12.3397 32.1408 16.7972 32.1408 22.2747C32.1408 27.7534 27.6846 32.2109 22.2058 32.2109ZM22.2058 10.9359C15.9533 10.9359 10.8671 16.0222 10.8671 22.2747C10.8671 28.5272 15.9533 33.6147 22.2058 33.6147C28.4571 33.6147 33.5446 28.5272 33.5446 22.2747C33.5446 16.0222 28.4571 10.9359 22.2058 10.9359Z" fill="white"/>
<path d="M22.2058 7.61194C22.5933 7.61194 22.907 7.29817 22.907 6.90942V1.30438C22.907 0.916882 22.5933 0.603149 22.2058 0.603149C21.8183 0.603149 21.5033 0.916882 21.5033 1.30438V6.90942C21.5033 7.29817 21.8183 7.61194 22.2058 7.61194Z" fill="white"/>
<path d="M22.2058 36.777C21.8183 36.777 21.5033 37.0908 21.5033 37.4796V43.0845C21.5033 43.472 21.8183 43.7858 22.2058 43.7858C22.5933 43.7858 22.907 43.472 22.907 43.0845V37.4796C22.907 37.0908 22.5933 36.777 22.2058 36.777Z" fill="white"/>
<path d="M29.8835 9.79641C29.9985 9.86771 30.126 9.90145 30.2522 9.90145C30.4872 9.90145 30.7172 9.78393 30.8497 9.56893L33.801 4.8027C34.0035 4.4727 33.9022 4.04145 33.5735 3.83645C33.2435 3.6327 32.811 3.73393 32.6072 4.06393L29.656 8.83144C29.4522 9.16019 29.5535 9.59266 29.8835 9.79641Z" fill="white"/>
<path d="M14.5288 34.5926C14.2 34.3888 13.7663 34.49 13.5625 34.82L10.6113 39.5863C10.4075 39.9163 10.51 40.3476 10.8388 40.5526C10.955 40.6238 11.0813 40.6576 11.2075 40.6576C11.4425 40.6576 11.6725 40.54 11.805 40.325L14.7563 35.5576C14.96 35.2288 14.8575 34.7963 14.5288 34.5926Z" fill="white"/>
<path d="M35.6861 15.6998C35.7986 15.6998 35.9111 15.6736 36.0173 15.6173L40.9623 12.9685C41.3048 12.786 41.4336 12.3611 41.2498 12.0186C41.0673 11.6786 40.6423 11.5486 40.2998 11.7323L35.3548 14.3798C35.0123 14.5623 34.8836 14.9886 35.0673 15.3298C35.1936 15.5661 35.4361 15.6998 35.6861 15.6998Z" fill="white"/>
<path d="M8.38495 28.8168L3.43745 31.4643C3.0962 31.6481 2.96745 32.0718 3.14995 32.4143C3.27745 32.6506 3.5187 32.7855 3.76995 32.7855C3.8812 32.7855 3.9937 32.758 4.09995 32.7017L9.0462 30.0542C9.3887 29.8705 9.51745 29.4455 9.33495 29.103C9.1512 28.763 8.72745 28.6342 8.38495 28.8167" fill="white"/>
<path d="M43.1073 21.4542H43.1053L37.4953 21.4703C37.1078 21.4713 36.794 21.7866 36.7953 22.1741C36.7963 22.5603 37.1103 22.8741 37.4965 22.8741H37.4985L43.1085 22.8579C43.496 22.8569 43.8098 22.5417 43.8086 22.1542C43.8076 21.7667 43.4935 21.4542 43.1073 21.4542Z" fill="white"/>
<path d="M7.60859 22.2568C7.60759 21.8693 7.29359 21.5568 6.90609 21.5568H6.90509L1.29509 21.5731C0.906343 21.5741 0.593847 21.8894 0.595097 22.2769C0.596097 22.6644 0.910095 22.9768 1.29634 22.9768H1.29834L6.90834 22.9605C7.29584 22.9595 7.60834 22.6443 7.60834 22.2568" fill="white"/>
<path d="M40.8942 31.6043L35.9692 28.913C35.6292 28.7268 35.203 28.8517 35.0167 29.1918C34.8317 29.5318 34.9567 29.9593 35.2967 30.1443L40.2205 32.8343C40.328 32.8943 40.443 32.9218 40.5567 32.9218C40.8042 32.9218 41.0467 32.7893 41.173 32.5568C41.3592 32.2155 41.233 31.7893 40.8942 31.6043Z" fill="white"/>
<path d="M9.11808 14.2366L4.19434 11.5454C3.85434 11.3592 3.42683 11.4841 3.24183 11.8242C3.05558 12.1642 3.18053 12.5917 3.52058 12.7767L8.44434 15.4679C8.55184 15.5267 8.66684 15.5542 8.78059 15.5542C9.02934 15.5542 9.27058 15.4217 9.39808 15.1892C9.58308 14.8492 9.45808 14.4217 9.11808 14.2367" fill="white"/>
<path d="M30.913 34.7922C30.708 34.4647 30.2755 34.3634 29.9468 34.5696C29.618 34.7746 29.518 35.2084 29.7243 35.5359L32.698 40.2947C32.8305 40.5072 33.0593 40.6234 33.293 40.6234C33.4205 40.6234 33.548 40.5897 33.6643 40.5171C33.993 40.3121 34.093 39.8784 33.888 39.5497L30.913 34.7922Z" fill="white"/>
<path d="M13.501 9.59014C13.6335 9.80264 13.8635 9.92016 14.096 9.92016C14.2235 9.92016 14.3522 9.88515 14.4672 9.8139C14.796 9.60765 14.896 9.17393 14.691 8.84643L11.716 4.08764C11.511 3.76014 11.0785 3.65892 10.7485 3.86517C10.4197 4.07017 10.321 4.50392 10.526 4.83142L13.501 9.59014Z" fill="white"/>
</svg>
