<svg width="55" height="37" viewBox="0 0 55 37" fill="none" xmlns="http://www.w3.org/2000/svg">
<path d="M23.3391 34.8372H46.1654C46.3179 34.8372 46.4754 34.8371 46.6241 34.8533V34.8372C50.3516 34.8372 53.3854 31.8047 53.3854 28.0759C53.3854 24.3472 50.3516 21.3146 46.6241 21.3146C46.0941 21.3146 45.5466 21.3835 44.9929 21.5197C44.8129 21.5647 44.6204 21.5322 44.4654 21.4285C44.3104 21.3247 44.2054 21.1635 44.1766 20.9797C43.4216 16.166 39.3391 12.6747 34.4691 12.6747C29.0429 12.6747 24.6291 17.0885 24.6291 22.5147C24.6291 22.7822 24.6479 23.0447 24.6691 23.306C24.6854 23.5035 24.6129 23.6972 24.4716 23.8347C24.3291 23.9747 24.1329 24.041 23.9379 24.0197C23.7404 23.9997 23.5416 23.986 23.3391 23.986C20.3479 23.986 17.9141 26.4198 17.9141 29.411C17.9141 32.4035 20.3479 34.8373 23.3391 34.8373V34.8372ZM23.3029 22.6585C23.3019 22.611 23.3019 22.5623 23.3019 22.5148C23.3019 16.356 28.3119 11.3472 34.4694 11.3472C39.7644 11.3472 44.2394 14.9835 45.3607 20.091C45.7869 20.021 46.2094 19.9872 46.6244 19.9872C51.0844 19.9872 54.7132 23.616 54.7132 28.076C54.7132 32.536 51.0844 36.1647 46.6207 36.1647H40.5869H23.3394C19.6157 36.1647 16.5869 33.136 16.5869 29.411C16.5869 25.701 19.5957 22.6785 23.3032 22.6585" fill="white"/>
<path d="M13.0521 32.6494C8.89651 31.6728 5.29447 29.1124 3.04663 25.4833C-1.62974 17.9335 0.716971 7.98507 8.26638 3.30862C15.8162 -1.36774 25.7408 0.956621 30.4172 8.50631C31.0882 9.58968 29.5694 10.0822 29.1044 9.33151C24.8736 2.50105 15.8997 0.414235 9.06924 4.64511C2.23875 8.87594 0.150508 17.8037 4.38161 24.6342C6.41114 27.9108 9.6455 30.257 13.3975 31.1388C14.3347 31.3591 14.16 32.9098 13.0517 32.6493L13.0521 32.6494Z" fill="white"/>
</svg>
