<svg width="48" height="43" viewBox="0 0 48 43" fill="none" xmlns="http://www.w3.org/2000/svg">
<path d="M16.2454 28.5354H38.9479C39.0991 28.5354 39.2566 28.5354 39.4041 28.5517V28.5354C43.1116 28.5354 46.1291 25.5191 46.1291 21.8116C46.1291 18.1029 43.1116 15.0867 39.4041 15.0867C38.8779 15.0867 38.3316 15.1554 37.7816 15.2904C37.6016 15.3354 37.4129 15.3029 37.2579 15.2004C37.1029 15.0979 37.0004 14.9354 36.9704 14.7529C36.2191 9.96668 32.1579 6.49292 27.3154 6.49292C21.9191 6.49292 17.5279 10.8829 17.5279 16.2804C17.5279 16.5454 17.5479 16.8079 17.5692 17.0679C17.5842 17.2629 17.5117 17.4567 17.3717 17.5942C17.2317 17.7317 17.0342 17.7979 16.8417 17.7779C16.6454 17.7566 16.4467 17.7442 16.2454 17.7442C13.2704 17.7442 10.8492 20.1642 10.8492 23.1392C10.8492 26.1142 13.2704 28.5355 16.2454 28.5355L16.2454 28.5354ZM16.2092 16.423C16.2092 16.3755 16.2082 16.328 16.2082 16.2805C16.2082 10.1555 21.1907 5.17297 27.3157 5.17297C32.582 5.17297 37.032 8.79045 38.1482 13.8692C38.572 13.8005 38.9919 13.7654 39.4044 13.7654C43.8407 13.7654 47.4495 17.3742 47.4495 21.8117C47.4495 26.2467 43.8407 29.8567 39.4007 29.8567H33.3995H16.2457C12.5432 29.8567 9.52948 26.843 9.52948 23.1392C9.52948 19.448 12.522 16.4442 16.2095 16.423" fill="white"/>
<path d="M8.15887 9.31604C8.57137 9.31604 8.99263 9.35105 9.41513 9.4198C10.5314 4.34105 14.9814 0.72229 20.2476 0.72229C22.5401 0.72229 24.7414 1.41604 26.6126 2.72729C26.9114 2.93729 26.9839 3.34978 26.7751 3.64728C26.5639 3.94603 26.1539 4.0185 25.8539 3.80975C24.2064 2.6535 22.2676 2.04352 20.2476 2.04352C15.4051 2.04352 11.3439 5.51728 10.5926 10.3035C10.5626 10.4873 10.4589 10.6485 10.3051 10.751C10.1526 10.8535 9.96262 10.886 9.78012 10.8423C9.23137 10.7048 8.68512 10.6373 8.15887 10.6373C4.45137 10.6373 1.43387 13.6536 1.43387 17.3623C1.43387 20.8198 4.02386 23.6961 7.45886 24.0498C7.82261 24.0885 8.08636 24.4123 8.04886 24.7748C8.01386 25.1148 7.72636 25.3673 7.39261 25.3673C7.37011 25.3673 7.34632 25.3664 7.32382 25.3654C3.21382 24.9404 0.113831 21.5004 0.113831 17.3629C0.113831 12.9254 3.72256 9.31659 8.15881 9.31659" fill="white"/>
<path d="M19.4882 32.8555C19.172 32.6993 18.787 32.8267 18.6295 33.1418L14.3082 41.7818C14.1495 42.0993 14.2794 42.483 14.5957 42.6418C14.687 42.6868 14.7845 42.7093 14.882 42.7093C15.117 42.7093 15.3432 42.5793 15.4557 42.3555L19.7745 33.7155C19.9332 33.3993 19.8058 33.0143 19.4882 32.8555Z" fill="white"/>
<path d="M26.6941 32.8555C26.3779 32.6993 25.9916 32.8267 25.8341 33.1418L21.5141 41.7818C21.3554 42.0993 21.4841 42.483 21.8004 42.6418C21.8929 42.6868 21.9903 42.7093 22.0853 42.7093C22.3228 42.7093 22.5479 42.5793 22.6604 42.3555L26.9804 33.7155C27.1391 33.3993 27.0104 33.0143 26.6941 32.8555Z" fill="white"/>
<path d="M33.8975 32.8555C33.5812 32.6993 33.1962 32.8267 33.0375 33.1418L28.7175 41.7818C28.56 42.0993 28.6875 42.483 29.005 42.6418C29.0963 42.6868 29.1938 42.7093 29.2913 42.7093C29.5263 42.7093 29.7537 42.5793 29.865 42.3555L34.1837 33.7155C34.3425 33.3993 34.215 33.0143 33.8975 32.8555Z" fill="white"/>
</svg>
