<svg width="39" height="26" viewBox="0 0 39 26" fill="none" xmlns="http://www.w3.org/2000/svg">
<path d="M6.89349 24.1545H29.5573C29.7073 24.1545 29.866 24.1545 30.011 24.1707V24.1545C33.7135 24.1545 36.726 21.1433 36.726 17.4408C36.726 13.7383 33.7135 10.7258 30.011 10.7258C29.4885 10.7258 28.9435 10.7958 28.391 10.932C28.2147 10.977 28.0235 10.9445 27.8685 10.842C27.7148 10.7383 27.611 10.577 27.5835 10.3945C26.8322 5.61578 22.7785 2.14825 17.9435 2.14825C12.556 2.14825 8.17349 6.53077 8.17349 11.9183C8.17349 12.1845 8.1923 12.4446 8.2135 12.7033C8.2297 12.8996 8.15849 13.0933 8.01599 13.2308C7.87599 13.3683 7.68099 13.4346 7.48599 13.4146C7.28974 13.3933 7.09349 13.3795 6.89349 13.3795C3.92224 13.3795 1.50476 15.7958 1.50476 18.767C1.50476 21.7383 3.92224 24.1545 6.89349 24.1545ZM6.85599 12.062C6.85599 12.0145 6.85501 11.967 6.85501 11.9183C6.85501 5.80452 11.83 0.83075 17.9438 0.83075C23.2013 0.83075 27.6463 4.44202 28.7575 9.51202C29.1813 9.44332 29.6013 9.40826 30.0113 9.40826C34.4413 9.40826 38.045 13.0108 38.045 17.4408C38.045 21.8683 34.4413 25.472 30.0088 25.472H24.0175H6.89374C3.19499 25.472 0.188751 22.4645 0.188751 18.767C0.188751 15.082 3.17501 12.0808 6.85626 12.062" fill="white"/>
</svg>
