<svg width="49" height="43" viewBox="0 0 49 43" fill="none" xmlns="http://www.w3.org/2000/svg">
<path d="M6.0805 32.8369C5.76175 32.6794 5.37551 32.8069 5.21551 33.1244L0.869259 41.8169C0.710509 42.1344 0.839236 42.5219 1.15799 42.6819C1.25049 42.7281 1.34924 42.7507 1.44549 42.7507C1.68299 42.7507 1.91051 42.6195 2.02301 42.3945L6.36926 33.7007C6.52801 33.3832 6.39925 32.9957 6.0805 32.837" fill="white"/>
<path d="M13.3296 32.8369C13.0109 32.6794 12.6246 32.8069 12.4646 33.1244L8.11837 41.8169C7.95962 42.1344 8.08838 42.5219 8.40713 42.6819C8.49963 42.7281 8.59713 42.7507 8.69463 42.7507C8.93088 42.7507 9.15837 42.6195 9.27212 42.3945L13.6171 33.7007C13.7771 33.3832 13.6484 32.9957 13.3296 32.837" fill="white"/>
<path d="M20.5781 32.8369C20.2606 32.6794 19.8731 32.8069 19.7131 33.1244L15.3669 41.8169C15.2081 42.1344 15.3369 42.5219 15.6556 42.6819C15.7481 42.7281 15.8456 42.7507 15.9431 42.7507C16.1794 42.7507 16.4081 42.6195 16.5206 42.3945L20.8669 33.7007C21.0256 33.3832 20.8969 32.9957 20.5781 32.837" fill="white"/>
<path d="M27.8266 32.8369C27.5079 32.6794 27.1216 32.8069 26.9616 33.1244L22.6154 41.8169C22.4554 42.1344 22.5854 42.5219 22.9041 42.6819C22.9966 42.7281 23.0941 42.7507 23.1916 42.7507C23.4279 42.7507 23.6554 42.6195 23.7691 42.3945L28.1141 33.7007C28.2741 33.3832 28.1454 32.9957 27.8266 32.837" fill="white"/>
<path d="M35.0746 32.8369C34.7559 32.6794 34.3696 32.8069 34.2096 33.1244L29.8634 41.8169C29.7046 42.1344 29.8334 42.5219 30.1521 42.6819C30.2446 42.7281 30.3421 42.7507 30.4396 42.7507C30.6759 42.7507 30.9046 42.6195 31.0171 42.3945L35.3634 33.7007C35.5221 33.3832 35.3934 32.9957 35.0746 32.837" fill="white"/>
<path d="M42.0356 32.8369C41.7169 32.6794 41.3306 32.8069 41.1706 33.1244L36.8244 41.8169C36.6656 42.1344 36.7944 42.5219 37.1131 42.6819C37.2056 42.7281 37.3031 42.7507 37.4006 42.7507C37.6369 42.7507 37.8656 42.6195 37.9781 42.3945L42.3244 33.7007C42.4831 33.3832 42.3544 32.9957 42.0356 32.837" fill="white"/>
<path d="M47.6722 32.8369C47.3535 32.6794 46.9672 32.8069 46.8072 33.1244L42.461 41.8169C42.3022 42.1344 42.431 42.5219 42.7497 42.6819C42.8422 42.7281 42.9398 42.7507 43.0373 42.7507C43.2735 42.7507 43.5022 42.6195 43.6147 42.3945L47.961 33.7007C48.1197 33.3832 47.991 32.9957 47.6722 32.837" fill="white"/>
<path d="M17.0546 27.9321H39.2309C39.3784 27.9321 39.5321 27.9322 39.6759 27.9484V27.9321C43.2984 27.9321 46.2446 24.9859 46.2446 21.3621C46.2446 17.7409 43.2984 14.7934 39.6759 14.7934C39.1634 14.7934 38.6309 14.8609 38.0909 14.9934C37.9159 15.0384 37.7309 15.0059 37.5784 14.9059C37.4284 14.8059 37.3271 14.6471 37.2984 14.4684C36.5646 9.79338 32.5984 6.39966 27.8671 6.39966C22.5971 6.39966 18.3084 10.6884 18.3084 15.9597C18.3084 16.2197 18.3259 16.4746 18.3471 16.7284C18.3634 16.9196 18.2934 17.1097 18.1546 17.2434C18.0171 17.3784 17.8258 17.4422 17.6346 17.4234C17.4446 17.4021 17.2508 17.3897 17.0546 17.3897C14.1483 17.3897 11.7846 19.7547 11.7846 22.6609C11.7846 25.5672 14.1483 27.9322 17.0546 27.9322L17.0546 27.9321ZM17.0196 16.0997C17.0186 16.0535 17.0186 16.0072 17.0186 15.9597C17.0186 9.97847 21.8861 5.10968 27.8673 5.10968C33.0123 5.10968 37.3598 8.64346 38.4486 13.606C38.8636 13.5372 39.2736 13.5035 39.6761 13.5035C44.0086 13.5035 47.5348 17.0284 47.5348 21.3622C47.5348 25.6959 44.0086 29.2209 39.6723 29.2209H33.8111H17.0548C13.4373 29.2209 10.4936 26.2785 10.4936 22.6609C10.4936 19.0547 13.4186 16.1184 17.0198 16.0997" fill="white"/>
<path d="M9.15552 9.15778C9.55802 9.15778 9.96799 9.19148 10.3817 9.25903C11.4717 4.29653 15.8193 0.764038 20.963 0.764038C23.2043 0.764038 25.353 1.44028 27.1805 2.72278C27.473 2.92653 27.543 3.32777 27.3393 3.61902C27.1343 3.91152 26.733 3.98152 26.4405 3.77777C24.8317 2.65027 22.9368 2.0528 20.963 2.0528C16.233 2.0528 12.2655 5.44652 11.5317 10.1215C11.5042 10.3003 11.403 10.459 11.2517 10.559C11.1017 10.659 10.9168 10.6903 10.7405 10.6478C10.2018 10.5153 9.66927 10.4478 9.15552 10.4478C5.53302 10.4478 2.58676 13.3954 2.58676 17.0166C2.58676 20.3954 5.11674 23.2041 8.47174 23.5504C8.82674 23.5866 9.08425 23.9041 9.048 24.2578C9.013 24.5903 8.73299 24.8366 8.40674 24.8366C8.38424 24.8366 8.36176 24.8356 8.33926 24.8346C4.32426 24.4196 1.2955 21.0596 1.2955 17.0171C1.2955 12.6833 4.82177 9.15833 9.15552 9.15833" fill="white"/>
</svg>
