<svg width="47" height="47" viewBox="0 0 47 47" fill="none" xmlns="http://www.w3.org/2000/svg">
<path d="M15.8773 27.8292H38.0423C38.1898 27.8292 38.3435 27.8292 38.4873 27.8442V27.8292C42.1073 27.8292 45.0535 24.8842 45.0535 21.2642C45.0535 17.6429 42.1073 14.6979 38.4873 14.6979C37.9735 14.6979 37.4397 14.7654 36.9035 14.8979C36.7285 14.9416 36.5423 14.9092 36.391 14.8091C36.241 14.7091 36.1385 14.5504 36.111 14.3729C35.3785 9.69911 31.4123 6.30786 26.6848 6.30786C21.416 6.30786 17.1285 10.5941 17.1285 15.8641C17.1285 16.1229 17.1485 16.3791 17.1698 16.6316C17.1835 16.8241 17.1135 17.0129 16.976 17.1466C16.8398 17.2804 16.6473 17.3454 16.4586 17.3254C16.2673 17.3054 16.0735 17.2928 15.8773 17.2928C12.9723 17.2928 10.6086 19.6566 10.6086 22.5604C10.6086 25.4654 12.9723 27.8291 15.8773 27.8291L15.8773 27.8292ZM15.8411 16.0041C15.8411 15.9566 15.8401 15.9104 15.8401 15.8641C15.8401 9.88414 20.7063 5.0191 26.6851 5.0191C31.8263 5.0191 36.1726 8.55038 37.2614 13.5104C37.6739 13.4429 38.0851 13.4078 38.4876 13.4078C42.8188 13.4078 46.3426 16.9328 46.3426 21.2641C46.3426 25.5953 42.8189 29.1191 38.4839 29.1191H32.6251H15.8776C12.2613 29.1191 9.3201 26.1766 9.3201 22.5604C9.3201 18.9566 12.2413 16.0228 15.8413 16.0041" fill="white"/>
<path d="M7.98175 9.06451C8.3855 9.06451 8.79551 9.09822 9.20801 9.16577C10.298 4.20702 14.643 0.6745 19.7842 0.6745C22.023 0.6745 24.1718 1.35202 25.9993 2.63202C26.2893 2.83702 26.3605 3.23829 26.1567 3.52954C25.9517 3.82204 25.5505 3.89204 25.258 3.68829C23.6492 2.55954 21.7567 1.96326 19.7842 1.96326C15.0567 1.96326 11.0905 5.35576 10.358 10.0283C10.3292 10.2083 10.2268 10.3658 10.0768 10.4658C9.928 10.5658 9.74299 10.5983 9.56549 10.5546C9.02799 10.4208 8.49675 10.3533 7.98175 10.3533C4.36175 10.3533 1.4155 13.2996 1.4155 16.9196C1.4155 20.2958 3.94551 23.1033 7.29926 23.4496C7.65301 23.4871 7.91052 23.8046 7.87427 24.1583C7.83927 24.4896 7.55925 24.7371 7.233 24.7371C7.2118 24.7371 7.18801 24.7361 7.16681 24.7331C3.15306 24.3181 0.126801 20.9593 0.126801 16.9193C0.126801 12.5881 3.65056 9.06433 7.98181 9.06433" fill="white"/>
<path d="M15.4117 34.281C15.0449 34.2819 14.7488 34.578 14.7479 34.9448V35.9666H13.7261C13.3602 35.9666 13.0632 36.2636 13.0623 36.6304C13.0632 36.9972 13.3602 37.2941 13.7261 37.2941H14.7479L14.747 38.3151C14.747 38.681 15.044 38.9779 15.4108 38.9788C15.5946 38.9788 15.7617 38.9037 15.881 38.7844C16.0012 38.6642 16.0755 38.498 16.0746 38.3151L16.0755 37.2941L17.0964 37.2933C17.2802 37.2933 17.4455 37.2198 17.5657 37.0997C17.6859 36.9795 17.7602 36.8133 17.7602 36.6295C17.7593 36.2626 17.4623 35.9657 17.0964 35.9657L16.0755 35.9666V34.9448C16.0755 34.5788 15.7785 34.2819 15.4117 34.281Z" fill="white"/>
<path d="M27.4117 34.281C27.0449 34.2819 26.7488 34.578 26.7479 34.9448V35.9666H25.7261C25.3602 35.9666 25.0632 36.2636 25.0623 36.6304C25.0632 36.9972 25.3602 37.2941 25.7261 37.2941H26.7479L26.747 38.3151C26.747 38.681 27.044 38.9779 27.4108 38.9788C27.5946 38.9788 27.7617 38.9037 27.881 38.7844C28.0012 38.6642 28.0755 38.498 28.0746 38.3151L28.0755 37.2941L29.0964 37.2933C29.2802 37.2933 29.4455 37.2198 29.5657 37.0997C29.6859 36.9795 29.7602 36.8133 29.7602 36.6295C29.7593 36.2626 29.4623 35.9657 29.0964 35.9657L28.0755 35.9666V34.9448C28.0755 34.5788 27.7785 34.2819 27.4117 34.281Z" fill="white"/>
<path d="M39.4117 34.281C39.0449 34.2819 38.7488 34.578 38.7479 34.9448V35.9666H37.7261C37.3602 35.9666 37.0632 36.2636 37.0623 36.6304C37.0632 36.9972 37.3602 37.2941 37.7261 37.2941H38.7479L38.747 38.3151C38.747 38.681 39.044 38.9779 39.4108 38.9788C39.5946 38.9788 39.7617 38.9037 39.881 38.7844C40.0012 38.6642 40.0755 38.498 40.0746 38.3151L40.0755 37.2941L41.0963 37.2933C41.2802 37.2933 41.4455 37.2198 41.5657 37.0997C41.6859 36.9795 41.7602 36.8133 41.7602 36.6295C41.7593 36.2626 41.4623 35.9657 41.0963 35.9657L40.0755 35.9666V34.9448C40.0755 34.5788 39.7785 34.2819 39.4117 34.281Z" fill="white"/>
<path d="M9.41168 42.281C9.04487 42.2819 8.74877 42.578 8.74789 42.9448V43.9666H7.72614C7.36021 43.9666 7.0632 44.2636 7.06232 44.6304C7.0632 44.9972 7.36021 45.2941 7.72614 45.2941H8.74789L8.74701 46.3151C8.74701 46.681 9.04399 46.9779 9.4108 46.9788C9.59465 46.9788 9.76169 46.9037 9.88101 46.7844C10.0012 46.6642 10.0755 46.498 10.0746 46.3151L10.0755 45.2941L11.0964 45.2933C11.2802 45.2933 11.4455 45.2198 11.5657 45.0997C11.6859 44.9795 11.7602 44.8133 11.7602 44.6295C11.7593 44.2626 11.4623 43.9657 11.0964 43.9657L10.0755 43.9666V42.9448C10.0755 42.5788 9.77849 42.2819 9.41168 42.281Z" fill="white"/>
<path d="M21.4117 42.281C21.0449 42.2819 20.7488 42.578 20.7479 42.9448V43.9666H19.7261C19.3602 43.9666 19.0632 44.2636 19.0623 44.6304C19.0632 44.9972 19.3602 45.2941 19.7261 45.2941H20.7479L20.747 46.3151C20.747 46.681 21.044 46.9779 21.4108 46.9788C21.5946 46.9788 21.7617 46.9037 21.881 46.7844C22.0012 46.6642 22.0755 46.498 22.0746 46.3151L22.0755 45.2941L23.0964 45.2933C23.2802 45.2933 23.4455 45.2198 23.5657 45.0997C23.6859 44.9795 23.7602 44.8133 23.7602 44.6295C23.7593 44.2626 23.4623 43.9657 23.0964 43.9657L22.0755 43.9666V42.9448C22.0755 42.5788 21.7785 42.2819 21.4117 42.281Z" fill="white"/>
<path d="M33.4117 42.281C33.0449 42.2819 32.7488 42.578 32.7479 42.9448V43.9666H31.7261C31.3602 43.9666 31.0632 44.2636 31.0623 44.6304C31.0632 44.9972 31.3602 45.2941 31.7261 45.2941H32.7479L32.747 46.3151C32.747 46.681 33.044 46.9779 33.4108 46.9788C33.5946 46.9788 33.7617 46.9037 33.881 46.7844C34.0012 46.6642 34.0755 46.498 34.0746 46.3151L34.0755 45.2941L35.0964 45.2933C35.2802 45.2933 35.4455 45.2198 35.5657 45.0997C35.6859 44.9795 35.7602 44.8133 35.7602 44.6295C35.7593 44.2626 35.4623 43.9657 35.0964 43.9657L34.0755 43.9666V42.9448C34.0755 42.5788 33.7785 42.2819 33.4117 42.281Z" fill="white"/>
</svg>
