<svg width="21" height="36" viewBox="0 0 21 36" fill="none" xmlns="http://www.w3.org/2000/svg">
<path d="M6.53496 0.802429C6.19064 0.802429 5.81431 0.905469 5.53496 1.11493C5.26549 1.31702 5.06569 1.60092 4.97246 1.92743V1.95874L0.941205 18.4587V18.4901C0.834255 19.0026 1.03561 19.5895 1.44121 19.9276C1.73649 20.1781 2.12204 20.3338 2.50371 20.3338C2.62736 20.3338 2.75783 20.3071 2.90996 20.2713H2.94127L9.91002 18.5526L6.25377 33.5526C6.25177 33.5625 6.25577 33.5738 6.25377 33.5838C6.17107 33.9498 6.21487 34.3881 6.41002 34.7088C6.61176 35.0415 6.95111 35.2887 7.31627 35.3963H7.34755H7.41005C7.55943 35.4257 7.64473 35.4588 7.8163 35.4588C8.4036 35.4588 9.01333 35.1057 9.28505 34.5838V34.5526L20.0663 11.4276C20.2857 10.9492 20.1611 10.3234 19.8475 9.8963C19.8215 9.8609 19.8456 9.8037 19.8163 9.7713L19.5663 9.9588L19.785 9.74005C19.4805 9.43555 19.0652 9.24089 18.6288 9.24005C18.4577 9.24005 18.3542 9.26995 18.2225 9.30255L11.5663 10.9588L14.5038 2.99005C14.5138 2.97005 14.5255 2.94795 14.535 2.92755C14.6193 2.74479 14.6913 2.56192 14.6913 2.3338C14.6913 1.92827 14.5096 1.51621 14.2225 1.24005C13.9263 0.954761 13.5039 0.802551 13.0975 0.802551H6.53505L6.53496 0.802429ZM6.53496 2.17743H13.0975C13.197 2.17743 13.2035 2.19153 13.2537 2.23993C13.313 2.29693 13.285 2.28632 13.285 2.33362C13.285 2.29342 13.287 2.29733 13.2537 2.36493V2.42743L13.2224 2.45874L9.81614 11.7087L9.34739 12.9275L10.6286 12.615L18.5661 10.6775C18.6483 10.6571 18.6923 10.6462 18.6286 10.6462C18.6845 10.6463 18.7287 10.6601 18.7849 10.7087C18.7899 10.7127 18.7799 10.7352 18.7849 10.74C18.8214 10.7633 18.8589 10.7406 18.8162 10.8337L8.03496 33.9274C8.02226 33.9518 8.01134 33.9428 8.00364 33.9587C7.96594 34.0365 7.97024 34.0524 7.81614 34.0524C7.85374 34.0524 7.76436 34.0574 7.72246 34.0524C7.67856 34.0395 7.67316 34.0307 7.65996 34.0211C7.64676 34.0111 7.64114 33.9792 7.62864 33.9586C7.60244 33.9156 7.58406 33.9496 7.59736 33.8961L11.5349 17.7399L11.8161 16.6149L10.6911 16.8961L2.59736 18.9274H2.56605C2.63105 18.9104 2.58405 18.9274 2.50355 18.9274C2.40535 18.9274 2.39846 18.9083 2.3473 18.8649C2.2953 18.8216 2.30429 18.8234 2.31599 18.8024V18.7711L6.31599 2.33356V2.30231C6.32499 2.27751 6.33969 2.26891 6.37849 2.23981C6.41909 2.20941 6.45259 2.17731 6.53474 2.17731L6.53496 2.17743Z" fill="white"/>
</svg>
