<svg width="233" height="224" viewBox="0 0 233 224" fill="none" xmlns="http://www.w3.org/2000/svg">
<path d="M41 146H91L116 124.5L142.5 146H191.5" stroke="#F8981D" stroke-width="8" stroke-linecap="round"/>
<path d="M41 118C38.7909 118 37 119.791 37 122C37 124.209 38.7909 126 41 126V118ZM61 126C63.2091 126 65 124.209 65 122C65 119.791 63.2091 118 61 118V126ZM41 126H61V118H41V126Z" fill="#F8981D"/>
<path d="M172 118C169.791 118 168 119.791 168 122C168 124.209 169.791 126 172 126V118ZM192 126C194.209 126 196 124.209 196 122C196 119.791 194.209 118 192 118V126ZM172 126H192V118H172V126Z" fill="#F8981D"/>
<path d="M62.655 64.587C61.0353 63.0847 58.5044 63.1799 57.0022 64.7996C55.4999 66.4193 55.5951 68.9502 57.2148 70.4525L62.655 64.587ZM71.8786 84.053C73.4983 85.5553 76.0292 85.4601 77.5314 83.8403C79.0337 82.2206 78.9385 79.6898 77.3188 78.1875L71.8786 84.053ZM57.2148 70.4525L71.8786 84.053L77.3188 78.1875L62.655 64.587L57.2148 70.4525Z" fill="#F8981D"/>
<path d="M174.619 70.0771C176.185 68.519 176.192 65.9863 174.633 64.4203C173.075 62.8542 170.543 62.8478 168.977 64.406L174.619 70.0771ZM154.799 78.5123C153.233 80.0704 153.226 82.6031 154.784 84.1691C156.343 85.7352 158.875 85.7416 160.441 84.1834L154.799 78.5123ZM168.977 64.406L154.799 78.5123L160.441 84.1834L174.619 70.0771L168.977 64.406Z" fill="#F8981D"/>
<path d="M120 44C120 41.7909 118.209 40 116 40C113.791 40 112 41.7909 112 44L120 44ZM112 64C112 66.2091 113.791 68 116 68C118.209 68 120 66.2091 120 64L112 64ZM112 44L112 64L120 64L120 44L112 44Z" fill="#F8981D"/>
<path d="M73 126.5C73 128.709 74.7909 130.5 77 130.5C79.2091 130.5 81 128.709 81 126.5H73ZM151 126.5C151 128.709 152.791 130.5 155 130.5C157.209 130.5 159 128.709 159 126.5H151ZM81 126.5C81 111.998 85.5797 101.503 92.0857 94.6632C98.6149 87.7992 107.304 84.375 116 84.375C124.696 84.375 133.385 87.7992 139.914 94.6632C146.42 101.503 151 111.998 151 126.5H159C159 110.252 153.83 97.6848 145.711 89.1495C137.615 80.6384 126.804 76.375 116 76.375C105.196 76.375 94.3851 80.6384 86.2893 89.1495C78.1703 97.6848 73 110.252 73 126.5H81Z" fill="#F8981D"/>
<path d="M72.438 189.591C72.438 188.498 72.0506 187.654 71.2759 187.062C70.5125 186.47 69.1283 185.871 67.123 185.268C65.1178 184.664 63.5228 183.992 62.3379 183.251C60.0706 181.827 58.937 179.97 58.937 177.68C58.937 175.674 59.7516 174.022 61.3809 172.724C63.0215 171.425 65.1463 170.775 67.7554 170.775C69.4871 170.775 71.0309 171.094 72.3867 171.732C73.7425 172.37 74.8078 173.282 75.5825 174.467C76.3573 175.64 76.7446 176.945 76.7446 178.38H72.438C72.438 177.082 72.0278 176.068 71.2075 175.338C70.3986 174.598 69.2365 174.228 67.7212 174.228C66.3084 174.228 65.209 174.529 64.4229 175.133C63.6481 175.737 63.2607 176.58 63.2607 177.663C63.2607 178.574 63.6823 179.337 64.5254 179.953C65.3685 180.556 66.7585 181.149 68.6953 181.73C70.6322 182.3 72.1873 182.955 73.3608 183.695C74.5343 184.424 75.3945 185.268 75.9414 186.225C76.4883 187.17 76.7617 188.281 76.7617 189.557C76.7617 191.631 75.9642 193.283 74.3691 194.513C72.7855 195.732 70.6322 196.342 67.9092 196.342C66.109 196.342 64.4513 196.011 62.936 195.351C61.4321 194.678 60.2586 193.756 59.4155 192.582C58.5838 191.409 58.168 190.041 58.168 188.48H62.4917C62.4917 189.893 62.9588 190.987 63.8931 191.762C64.8273 192.536 66.166 192.924 67.9092 192.924C69.4131 192.924 70.541 192.622 71.293 192.018C72.0563 191.403 72.438 190.594 72.438 189.591ZM91.3564 194.188C90.1374 195.624 88.4056 196.342 86.1611 196.342C84.1559 196.342 82.6349 195.755 81.5981 194.582C80.5728 193.408 80.0601 191.71 80.0601 189.489V177.509H84.2129V189.438C84.2129 191.785 85.187 192.958 87.1353 192.958C89.1519 192.958 90.5133 192.235 91.2197 190.788V177.509H95.3726V196H91.459L91.3564 194.188ZM103.456 177.509L103.576 179.645C104.943 177.993 106.737 177.167 108.959 177.167C112.81 177.167 114.77 179.372 114.838 183.781V196H110.685V184.02C110.685 182.847 110.429 181.981 109.916 181.422C109.415 180.853 108.589 180.568 107.438 180.568C105.763 180.568 104.516 181.326 103.695 182.841V196H99.5425V177.509H103.456ZM128.766 181.303C128.219 181.212 127.655 181.166 127.074 181.166C125.172 181.166 123.89 181.895 123.229 183.354V196H119.076V177.509H123.041L123.144 179.577C124.146 177.97 125.536 177.167 127.313 177.167C127.906 177.167 128.396 177.247 128.783 177.406L128.766 181.303ZM135.807 196H131.654V177.509H135.807V196ZM131.398 172.707C131.398 172.069 131.597 171.539 131.996 171.117C132.406 170.696 132.987 170.485 133.739 170.485C134.491 170.485 135.072 170.696 135.482 171.117C135.893 171.539 136.098 172.069 136.098 172.707C136.098 173.333 135.893 173.857 135.482 174.279C135.072 174.689 134.491 174.894 133.739 174.894C132.987 174.894 132.406 174.689 131.996 174.279C131.597 173.857 131.398 173.333 131.398 172.707ZM150.709 190.976C150.709 190.235 150.402 189.671 149.787 189.284C149.183 188.896 148.174 188.555 146.762 188.258C145.349 187.962 144.17 187.586 143.224 187.13C141.151 186.128 140.114 184.675 140.114 182.772C140.114 181.177 140.786 179.844 142.13 178.773C143.475 177.702 145.184 177.167 147.257 177.167C149.468 177.167 151.251 177.714 152.606 178.808C153.974 179.901 154.657 181.32 154.657 183.063H150.504C150.504 182.265 150.208 181.605 149.616 181.081C149.023 180.545 148.237 180.277 147.257 180.277C146.346 180.277 145.6 180.488 145.019 180.91C144.449 181.331 144.164 181.895 144.164 182.602C144.164 183.24 144.432 183.735 144.967 184.088C145.503 184.442 146.585 184.8 148.214 185.165C149.844 185.518 151.12 185.945 152.042 186.447C152.977 186.937 153.666 187.529 154.11 188.224C154.566 188.919 154.794 189.762 154.794 190.753C154.794 192.417 154.105 193.767 152.726 194.804C151.347 195.829 149.542 196.342 147.309 196.342C145.793 196.342 144.443 196.068 143.258 195.521C142.073 194.975 141.151 194.223 140.49 193.266C139.829 192.309 139.499 191.278 139.499 190.172H143.532C143.589 191.152 143.959 191.91 144.643 192.445C145.326 192.969 146.232 193.231 147.36 193.231C148.454 193.231 149.285 193.026 149.855 192.616C150.425 192.195 150.709 191.648 150.709 190.976ZM166.569 196.342C163.937 196.342 161.801 195.516 160.16 193.864C158.531 192.2 157.716 189.99 157.716 187.233V186.72C157.716 184.875 158.069 183.228 158.776 181.781C159.494 180.323 160.496 179.189 161.784 178.38C163.071 177.571 164.507 177.167 166.09 177.167C168.608 177.167 170.551 177.97 171.918 179.577C173.297 181.183 173.986 183.456 173.986 186.396V188.07H161.903C162.029 189.597 162.536 190.805 163.424 191.693C164.324 192.582 165.452 193.026 166.808 193.026C168.711 193.026 170.26 192.257 171.457 190.719L173.695 192.855C172.955 193.961 171.964 194.821 170.722 195.436C169.491 196.04 168.107 196.342 166.569 196.342ZM166.073 180.5C164.934 180.5 164.011 180.898 163.305 181.696C162.61 182.493 162.165 183.604 161.972 185.028H169.884V184.721C169.793 183.331 169.423 182.283 168.773 181.576C168.124 180.858 167.224 180.5 166.073 180.5Z" fill="white"/>
</svg>
