<svg width="233" height="224" viewBox="0 0 233 224" fill="none" xmlns="http://www.w3.org/2000/svg">
<path d="M191.5 144.5H141.5L116.5 166L90 144.5L41 144.5" stroke="#F1592D" stroke-width="8" stroke-linecap="round"/>
<path d="M41 118C38.7909 118 37 119.791 37 122C37 124.209 38.7909 126 41 126V118ZM61 126C63.2091 126 65 124.209 65 122C65 119.791 63.2091 118 61 118V126ZM41 126H61V118H41V126Z" fill="#F1592D"/>
<path d="M172 118C169.791 118 168 119.791 168 122C168 124.209 169.791 126 172 126V118ZM192 126C194.209 126 196 124.209 196 122C196 119.791 194.209 118 192 118V126ZM172 126H192V118H172V126Z" fill="#F1592D"/>
<path d="M62.655 64.587C61.0353 63.0847 58.5044 63.1799 57.0022 64.7996C55.4999 66.4193 55.5951 68.9502 57.2148 70.4525L62.655 64.587ZM71.8786 84.053C73.4983 85.5553 76.0292 85.4601 77.5314 83.8403C79.0337 82.2206 78.9385 79.6898 77.3188 78.1875L71.8786 84.053ZM57.2148 70.4525L71.8786 84.053L77.3188 78.1875L62.655 64.587L57.2148 70.4525Z" fill="#F1592D"/>
<path d="M174.619 70.0771C176.185 68.519 176.192 65.9863 174.633 64.4203C173.075 62.8542 170.543 62.8478 168.977 64.406L174.619 70.0771ZM154.799 78.5123C153.233 80.0704 153.226 82.6031 154.784 84.1691C156.343 85.7352 158.875 85.7416 160.441 84.1834L154.799 78.5123ZM168.977 64.406L154.799 78.5123L160.441 84.1834L174.619 70.0771L168.977 64.406Z" fill="#F1592D"/>
<path d="M120 44C120 41.7909 118.209 40 116 40C113.791 40 112 41.7909 112 44L120 44ZM112 64C112 66.2091 113.791 68 116 68C118.209 68 120 66.2091 120 64L112 64ZM112 44L112 64L120 64L120 44L112 44Z" fill="#F1592D"/>
<path d="M73 126.5C73 128.709 74.7909 130.5 77 130.5C79.2091 130.5 81 128.709 81 126.5H73ZM151 126.5C151 128.709 152.791 130.5 155 130.5C157.209 130.5 159 128.709 159 126.5H151ZM81 126.5C81 111.998 85.5797 101.503 92.0857 94.6632C98.6149 87.7992 107.304 84.375 116 84.375C124.696 84.375 133.385 87.7992 139.914 94.6632C146.42 101.503 151 111.998 151 126.5H159C159 110.252 153.83 97.6848 145.711 89.1495C137.615 80.6384 126.804 76.375 116 76.375C105.196 76.375 94.3851 80.6384 86.2893 89.1495C78.1703 97.6848 73 110.252 73 126.5H81Z" fill="#F1592D"/>
<path d="M77.2402 190.591C77.2402 189.498 76.8529 188.654 76.0781 188.062C75.3148 187.47 73.9305 186.871 71.9253 186.268C69.9201 185.664 68.325 184.992 67.1401 184.251C64.8729 182.827 63.7393 180.97 63.7393 178.68C63.7393 176.674 64.5539 175.022 66.1831 173.724C67.8237 172.425 69.9486 171.775 72.5576 171.775C74.2894 171.775 75.8332 172.094 77.189 172.732C78.5448 173.37 79.61 174.282 80.3848 175.467C81.1595 176.64 81.5469 177.945 81.5469 179.38H77.2402C77.2402 178.082 76.8301 177.068 76.0098 176.338C75.2008 175.598 74.0387 175.228 72.5234 175.228C71.1107 175.228 70.0112 175.529 69.2251 176.133C68.4504 176.737 68.063 177.58 68.063 178.663C68.063 179.574 68.4845 180.337 69.3276 180.953C70.1707 181.556 71.5607 182.149 73.4976 182.73C75.4344 183.3 76.9896 183.955 78.1631 184.695C79.3366 185.424 80.1968 186.268 80.7437 187.225C81.2905 188.17 81.564 189.281 81.564 190.557C81.564 192.631 80.7664 194.283 79.1714 195.513C77.5877 196.732 75.4344 197.342 72.7114 197.342C70.9113 197.342 69.2536 197.011 67.7383 196.351C66.2344 195.678 65.0609 194.756 64.2178 193.582C63.3861 192.409 62.9702 191.041 62.9702 189.48H67.2939C67.2939 190.893 67.7611 191.987 68.6953 192.762C69.6296 193.536 70.9683 193.924 72.7114 193.924C74.2153 193.924 75.3433 193.622 76.0952 193.018C76.8586 192.403 77.2402 191.594 77.2402 190.591ZM96.1587 195.188C94.9396 196.624 93.2078 197.342 90.9634 197.342C88.9582 197.342 87.4372 196.755 86.4004 195.582C85.375 194.408 84.8623 192.71 84.8623 190.489V178.509H89.0151V190.438C89.0151 192.785 89.9893 193.958 91.9375 193.958C93.9541 193.958 95.3156 193.235 96.022 191.788V178.509H100.175V197H96.2612L96.1587 195.188ZM108.258 178.509L108.378 180.645C109.745 178.993 111.54 178.167 113.761 178.167C117.612 178.167 119.572 180.372 119.64 184.781V197H115.487V185.02C115.487 183.847 115.231 182.981 114.718 182.422C114.217 181.853 113.391 181.568 112.24 181.568C110.565 181.568 109.318 182.326 108.498 183.841V197H104.345V178.509H108.258ZM134.252 191.976C134.252 191.235 133.944 190.671 133.329 190.284C132.725 189.896 131.717 189.555 130.304 189.258C128.891 188.962 127.712 188.586 126.767 188.13C124.693 187.128 123.656 185.675 123.656 183.772C123.656 182.177 124.328 180.844 125.673 179.773C127.017 178.702 128.726 178.167 130.8 178.167C133.01 178.167 134.793 178.714 136.149 179.808C137.516 180.901 138.2 182.32 138.2 184.063H134.047C134.047 183.265 133.751 182.605 133.158 182.081C132.566 181.545 131.78 181.277 130.8 181.277C129.888 181.277 129.142 181.488 128.561 181.91C127.991 182.331 127.707 182.895 127.707 183.602C127.707 184.24 127.974 184.735 128.51 185.088C129.045 185.442 130.128 185.8 131.757 186.165C133.386 186.518 134.662 186.945 135.585 187.447C136.519 187.937 137.208 188.529 137.653 189.224C138.109 189.919 138.336 190.762 138.336 191.753C138.336 193.417 137.647 194.767 136.269 195.804C134.89 196.829 133.084 197.342 130.851 197.342C129.336 197.342 127.986 197.068 126.801 196.521C125.616 195.975 124.693 195.223 124.032 194.266C123.371 193.309 123.041 192.278 123.041 191.172H127.074C127.131 192.152 127.501 192.91 128.185 193.445C128.869 193.969 129.774 194.231 130.902 194.231C131.996 194.231 132.828 194.026 133.397 193.616C133.967 193.195 134.252 192.648 134.252 191.976ZM150.111 197.342C147.479 197.342 145.343 196.516 143.703 194.864C142.073 193.2 141.259 190.99 141.259 188.233V187.72C141.259 185.875 141.612 184.228 142.318 182.781C143.036 181.323 144.039 180.189 145.326 179.38C146.614 178.571 148.049 178.167 149.633 178.167C152.151 178.167 154.093 178.97 155.46 180.577C156.839 182.183 157.528 184.456 157.528 187.396V189.07H145.446C145.571 190.597 146.078 191.805 146.967 192.693C147.867 193.582 148.995 194.026 150.351 194.026C152.253 194.026 153.803 193.257 154.999 191.719L157.238 193.855C156.497 194.961 155.506 195.821 154.264 196.436C153.034 197.04 151.649 197.342 150.111 197.342ZM149.616 181.5C148.476 181.5 147.554 181.898 146.847 182.696C146.152 183.493 145.708 184.604 145.514 186.028H153.427V185.721C153.336 184.331 152.965 183.283 152.316 182.576C151.667 181.858 150.766 181.5 149.616 181.5ZM165.971 174.014V178.509H169.235V181.585H165.971V191.907C165.971 192.614 166.107 193.126 166.381 193.445C166.666 193.753 167.167 193.907 167.885 193.907C168.363 193.907 168.847 193.85 169.337 193.736V196.949C168.392 197.211 167.48 197.342 166.603 197.342C163.413 197.342 161.818 195.582 161.818 192.061V181.585H158.776V178.509H161.818V174.014H165.971Z" fill="white"/>
</svg>
